#!OML:ASF X:\für Bonn\!DataBase\2005_08_12_Daniel\c3d\Daniel.ASF
:FULLY-SPECIFIED
:DEGREES
286
root 0.921428 16.4679 -16.5873 369.882 21.7018 5.76371
lowerback 76.5825 -5.83706 9.35829
upperback 9.10978 1.24967 -3.94173
thorax -10.1454 1.36114 -8.96514
lowerneck -1.2867 -7.63195 -0.975409
upperneck 5.96938 -10.3202 4.99087
head 2.45994 -4.99016 1.47539
rclavicle -3.49861e-014 9.14409e-015
rhumerus 208.492 -177.007 -251.126
rradius 13.0884
rwrist 27.6779
rhand -21.7922 6.5143
rfingers 7.12502
rthumb 4.60945 -23.4156
lclavicle -3.49861e-014 9.14409e-015
lhumerus -22.714 -14.1699 93.6507
lradius 47.2927
lwrist 11.0047
lhand -8.04125 -7.41523
lfingers 7.12502
lthumb 17.8692 21.7838
rfemur -41.9001 -5.53676 7.27697
rtibia 59.259
rfoot -25.3439 -9.41148
rtoes -14.6666
lfemur -48.6226 -10.5939 -22.9799
ltibia 55.8424
lfoot -13.9458 -16.9806
ltoes -5.74263
287
root 0.954712 16.5168 -16.5662 369.441 21.5216 5.43071
lowerback 75.7697 -5.69186 9.28077
upperback 9.31721 1.21821 -3.95228
thorax -9.99818 1.34751 -8.93752
lowerneck -1.32504 -7.52949 -1.00021
upperneck 5.9895 -10.175 4.77012
head 2.45526 -4.92424 1.41225
rclavicle -2.54444e-014 3.89618e-014
rhumerus 207.363 -177.883 -251.023
rradius 13.3888
rwrist 27.0071
rhand -21.4432 6.54497
rfingers 7.12502
rthumb 4.94646 -23.3773
lclavicle -2.54444e-014 3.89618e-014
lhumerus -22.558 -13.746 93.4902
lradius 46.6727
lwrist 10.4478
lhand -8.16557 -7.25506
lfingers 7.12502
lthumb 17.7495 21.9549
rfemur -40.846 -5.20228 7.49688
rtibia 58.2202
rfoot -25.1635 -9.45516
rtoes -14.5106
lfemur -47.7561 -10.7676 -22.7152
ltibia 55.2785
lfoot -14.0033 -16.5775
ltoes -5.80865
288
root 0.988573 16.5648 -16.5438 368.962 21.3546 5.13334
lowerback 74.9933 -5.57351 9.1956
upperback 9.52447 1.16156 -3.97398
thorax -9.84755 1.32611 -8.90817
lowerneck -1.431 -7.42615 -1.01436
upperneck 6.02925 -10.03 4.54036
head 2.46848 -4.85741 1.34162
rclavicle 6.67916e-014 -4.77083e-015
rhumerus 206.246 -178.794 -250.924
rradius 13.6563
rwrist 26.26
rhand -21.0922 6.62978
rfingers 7.12502
rthumb 5.28535 -23.2843
lclavicle 6.67916e-014 -4.77083e-015
lhumerus -22.3567 -13.2564 93.3011
lradius 45.9901
lwrist 9.84161
lhand -8.21677 -7.1954
lfingers 7.12502
lthumb 17.7003 22.019
rfemur -39.725 -4.87278 7.68236
rtibia 57.1705
rfoot -24.977 -9.52586
rtoes -14.3386
lfemur -46.8206 -10.9619 -22.5086
ltibia 54.7187
lfoot -14.0938 -16.1734
ltoes -5.86646
289
root 1.02277 16.6113 -16.5189 368.505 21.1593 4.8344
lowerback 74.182 -5.42138 9.10625
upperback 9.72684 1.13505 -3.98936
thorax -9.6987 1.31469 -8.88321
lowerneck -1.62117 -7.33853 -0.995388
upperneck 6.1119 -9.90625 4.26654
head 2.50752 -4.79984 1.24705
rclavicle -1.59028e-015 -4.37326e-015
rhumerus 205.093 -179.772 -250.758
rradius 13.9054
rwrist 25.4112
rhand -20.7574 6.70187
rfingers 7.12502
rthumb 5.60854 -23.2039
lclavicle -1.59028e-015 -4.37326e-015
lhumerus -22.1547 -12.7565 93.1221
lradius 45.2709
lwrist 9.20783
lhand -8.24966 -7.25521
lfingers 7.12502
lthumb 17.6686 21.962
rfemur -38.6182 -4.52229 7.86782
rtibia 56.1127
rfoot -24.8128 -9.59029
rtoes -14.1546
lfemur -45.9092 -11.1364 -22.2994
ltibia 54.1699
lfoot -14.1612 -15.7635
ltoes -5.85567
290
root 1.05763 16.6567 -16.4919 368.012 20.9596 4.52035
lowerback 73.4091 -5.27113 8.99499
upperback 9.90009 1.09955 -3.99801
thorax -9.57941 1.29536 -8.83752
lowerneck -1.74613 -7.23011 -1.00376
upperneck 6.14623 -9.75331 4.02612
head 2.52211 -4.72967 1.17208
rclavicle 2.38542e-014 6.71892e-014
rhumerus 203.915 -180.971 -250.514
rradius 14.1993
rwrist 24.3809
rhand -20.368 6.72442
rfingers 7.12502
rthumb 5.98456 -23.1711
lclavicle 2.38542e-014 6.71892e-014
lhumerus -21.9751 -12.2018 92.9219
lradius 44.5529
lwrist 8.51924
lhand -8.35415 -7.34885
lfingers 7.12502
lthumb 17.5681 21.8774
rfemur -37.4675 -4.15506 8.06892
rtibia 55.0437
rfoot -24.6278 -9.64131
rtoes -13.9861
lfemur -44.96 -11.3189 -22.0827
ltibia 53.6375
lfoot -14.2841 -15.3625
ltoes -5.92396
291
root 1.09283 16.7016 -16.4636 367.486 20.7917 4.16911
lowerback 72.6847 -5.1605 8.93995
upperback 10.0348 1.07116 -4.0118
thorax -9.49207 1.27664 -8.82334
lowerneck -1.92708 -7.13307 -0.916747
upperneck 6.24219 -9.61762 3.73836
head 2.56002 -4.66538 1.06288
rclavicle -2.54444e-014 3.93594e-014
rhumerus 202.73 -181.888 -250.469
rradius 14.4262
rwrist 23.6701
rhand -19.9968 6.76071
rfingers 7.12502
rthumb 6.3429 -23.1243
lclavicle -2.54444e-014 3.93594e-014
lhumerus -21.8577 -11.6614 92.7204
lradius 43.8608
lwrist 7.87832
lhand -8.48515 -7.49521
lfingers 7.12502
lthumb 17.442 21.7423
rfemur -36.2798 -3.81792 8.31939
rtibia 53.9748
rfoot -24.446 -9.70853
rtoes -13.7181
lfemur -43.9932 -11.4978 -21.8466
ltibia 53.1249
lfoot -14.4001 -14.9587
ltoes -5.91518
292
root 1.12818 16.746 -16.4325 366.919 20.5954 3.81807
lowerback 72.0349 -5.02446 8.84939
upperback 10.1303 1.05601 -4.01583
thorax -9.44237 1.25893 -8.7897
lowerneck -2.04015 -7.01955 -0.808808
upperneck 6.27432 -9.45956 3.46814
head 2.56437 -4.59135 0.96039
rclavicle 7.31528e-014 -4.85035e-014
rhumerus 201.549 -182.63 -250.548
rradius 14.6014
rwrist 23.1921
rhand -19.6213 6.84149
rfingers 7.12502
rthumb 6.70544 -23.0323
lclavicle 7.31528e-014 -4.85035e-014
lhumerus -21.7602 -11.0872 92.4933
lradius 43.1291
lwrist 7.13462
lhand -8.63062 -7.82949
lfingers 7.12502
lthumb 17.302 21.4203
rfemur -35.043 -3.428 8.57505
rtibia 52.9056
rfoot -24.2603 -9.79395
rtoes -13.5672
lfemur -42.9762 -11.699 -21.6113
ltibia 52.6262
lfoot -14.5396 -14.5476
ltoes -5.95845
293
root 1.1637 16.7877 -16.4001 366.357 20.4057 3.44996
lowerback 71.3698 -4.90421 8.76606
upperback 10.208 1.02817 -4.02594
thorax -9.41272 1.23366 -8.76078
lowerneck -2.17602 -6.88991 -0.668416
upperneck 6.33089 -9.28101 3.1793
head 2.57855 -4.50646 0.846327
rclavicle 4.77083e-015 -5.08889e-014
rhumerus 200.394 -183.101 -250.841
rradius 14.6952
rwrist 23.0589
rhand -19.2076 6.91738
rfingers 7.12502
rthumb 7.10475 -22.9434
lclavicle 4.77083e-015 -5.08889e-014
lhumerus -21.6715 -10.4166 92.2484
lradius 42.3973
lwrist 6.35497
lhand -8.77318 -8.10276
lfingers 7.12502
lthumb 17.1648 21.1591
rfemur -33.845 -3.09602 8.87137
rtibia 51.8656
rfoot -24.0405 -9.91794
rtoes -13.5255
lfemur -41.9807 -11.8939 -21.3622
ltibia 52.1566
lfoot -14.7012 -14.1327
ltoes -5.87984
294
root 1.20004 16.8277 -16.3652 365.776 20.2042 3.08035
lowerback 70.7481 -4.77682 8.68104
upperback 10.2619 1.01534 -4.02738
thorax -9.40256 1.21236 -8.72757
lowerneck -2.46128 -6.76927 -0.587482
upperneck 6.50142 -9.1174 2.92023
head 2.6647 -4.42651 0.74355
rclavicle 3.49861e-014 -5.4467e-014
rhumerus 199.238 -183.229 -251.29
rradius 14.7362
rwrist 23.3077
rhand -18.8503 6.99269
rfingers 7.12502
rthumb 7.44966 -22.8561
lclavicle 3.49861e-014 -5.4467e-014
lhumerus -21.5872 -9.79926 92.0007
lradius 41.6326
lwrist 5.54083
lhand -8.98145 -8.44866
lfingers 7.12502
lthumb 16.9643 20.8305
rfemur -32.6396 -2.75324 9.17313
rtibia 50.8544
rfoot -23.82 -10.0387
rtoes -13.5604
lfemur -40.9574 -12.1026 -21.1234
ltibia 51.7003
lfoot -14.8783 -13.7023
ltoes -5.85959
295
root 1.23567 16.8659 -16.3292 365.182 20.0173 2.69469
lowerback 70.1132 -4.66967 8.62566
upperback 10.3015 1.00109 -4.03539
thorax -9.40493 1.18972 -8.71367
lowerneck -2.72113 -6.64981 -0.536424
upperneck 6.6788 -8.95458 2.68802
head 2.75287 -4.34739 0.655063
rclavicle 3.33958e-014 -3.85642e-014
rhumerus 198.055 -183 -251.909
rradius 14.726
rwrist 23.9033
rhand -18.4505 7.10905
rfingers 7.12502
rthumb 7.83556 -22.7257
lclavicle 3.33958e-014 -3.85642e-014
lhumerus -21.5459 -9.17164 91.7237
lradius 40.9075
lwrist 4.6381
lhand -9.13217 -8.73882
lfingers 7.12502
lthumb 16.8192 20.5527
rfemur -31.4376 -2.39436 9.50021
rtibia 49.8828
rfoot -23.637 -10.2076
rtoes -13.7718
lfemur -39.9391 -12.3198 -20.8697
ltibia 51.2816
lfoot -15.0587 -13.2989
ltoes -5.67694
296
root 1.27209 16.9016 -16.2907 364.589 19.8127 2.3664
lowerback 69.4254 -4.53224 8.51837
upperback 10.3719 0.981698 -4.03992
thorax -9.3753 1.16738 -8.67162
lowerneck -2.99389 -6.5294 -0.513816
upperneck 6.89501 -8.78927 2.46446
head 2.85964 -4.26713 0.573025
rclavicle 7.95139e-015 -3.18055e-014
rhumerus 196.871 -183.181 -252.276
rradius 14.7985
rwrist 24.0644
rhand -18.0794 7.1426
rfingers 7.12502
rthumb 8.19372 -22.6785
lclavicle 7.95139e-015 -3.18055e-014
lhumerus -21.4365 -8.55954 91.4255
lradius 40.1071
lwrist 3.75347
lhand -9.28891 -9.02149
lfingers 7.12502
lthumb 16.6683 20.2828
rfemur -30.2293 -2.00609 9.76535
rtibia 48.9482
rfoot -23.5075 -10.376
rtoes -13.8517
lfemur -38.9033 -12.5311 -20.6937
ltibia 50.8848
lfoot -15.2913 -12.8771
ltoes -5.66381
297
root 1.30848 16.9347 -16.2502 364.001 19.6014 2.01826
lowerback 68.6922 -4.37345 8.41214
upperback 10.4252 0.984493 -4.03392
thorax -9.36065 1.15074 -8.62813
lowerneck -3.18942 -6.40724 -0.482296
upperneck 7.09135 -8.61975 2.24124
head 2.94591 -4.18583 0.493022
rclavicle -2.22639e-014 -8.50798e-014
rhumerus 195.655 -183.736 -252.428
rradius 14.9236
rwrist 23.7987
rhand -17.7154 7.04804
rfingers 7.12502
rthumb 8.54503 -22.7591
lclavicle -2.22639e-014 -8.50798e-014
lhumerus -21.3946 -7.96688 91.1074
lradius 39.3567
lwrist 2.84432
lhand -9.44214 -9.1804
lfingers 7.12502
lthumb 16.5208 20.1363
rfemur -29.0505 -1.56674 10.061
rtibia 48.0499
rfoot -23.4202 -10.6008
rtoes -14.0568
lfemur -37.8884 -12.7388 -20.4996
ltibia 50.5336
lfoot -15.541 -12.4571
ltoes -5.56856
298
root 1.34512 16.9629 -16.2084 363.442 19.3819 1.74625
lowerback 67.8958 -4.18772 8.2619
upperback 10.5039 0.983145 -4.03835
thorax -9.31843 1.13556 -8.57642
lowerneck -3.38982 -6.28943 -0.414453
upperneck 7.29778 -8.4578 2.02215
head 3.03605 -4.10742 0.407697
rclavicle -2.06736e-014 -3.06128e-014
rhumerus 194.428 -184.121 -252.657
rradius 15.0373
rwrist 23.6662
rhand -17.3796 6.96968
rfingers 7.12502
rthumb 8.86906 -22.8239
lclavicle -2.06736e-014 -3.06128e-014
lhumerus -21.2061 -7.31898 90.7609
lradius 38.4612
lwrist 1.81823
lhand -9.50951 -9.28366
lfingers 7.12502
lthumb 16.4559 20.0384
rfemur -27.9054 -1.11517 10.2805
rtibia 47.2059
rfoot -23.3179 -10.8237
rtoes -14.3855
lfemur -36.8939 -12.9494 -20.3858
ltibia 50.2134
lfoot -15.8036 -12.0709
ltoes -5.37421
299
root 1.38391 16.9869 -16.1655 362.88 19.1455 1.49208
lowerback 67.0817 -3.99758 8.1108
upperback 10.5701 0.984951 -4.06109
thorax -9.28596 1.12187 -8.54709
lowerneck -3.55251 -6.17265 -0.248836
upperneck 7.51053 -8.29868 1.75638
head 3.11511 -4.02978 0.29241
rclavicle -7.15625e-014 3.77691e-014
rhumerus 193.175 -184.284 -252.99
rradius 15.1109
rwrist 23.6599
rhand -17.0215 6.91868
rfingers 7.12502
rthumb 9.21455 -22.86
lclavicle -7.15625e-014 3.77691e-014
lhumerus -21.1106 -6.62116 90.4013
lradius 37.6944
lwrist 0.709045
lhand -9.47376 -9.1544
lfingers 7.12502
lthumb 16.4904 20.1648
rfemur -26.7843 -0.688018 10.4839
rtibia 46.4137
rfoot -23.208 -11.0089
rtoes -14.6809
lfemur -35.9026 -13.1672 -20.3148
ltibia 49.9289
lfoot -16.0809 -11.6294
ltoes -5.35102
300
root 1.42363 17.0084 -16.1214 362.332 18.8773 1.2766
lowerback 66.2544 -3.77876 7.89959
upperback 10.615 0.979758 -4.09031
thorax -9.2777 1.1023 -8.49708
lowerneck -3.60808 -6.04393 -0.0859021
upperneck 7.6802 -8.12167 1.49611
head 3.1607 -3.94465 0.184484
rclavicle 7.95139e-016 1.82882e-014
rhumerus 191.867 -184.386 -253.39
rradius 15.1975
rwrist 23.7402
rhand -16.7347 6.7621
rfingers 7.12502
rthumb 9.49136 -23.0041
lclavicle 7.95139e-016 1.82882e-014
lhumerus -21.0713 -5.95796 90.0027
lradius 36.9691
lwrist -0.404818
lhand -9.42338 -8.91983
lfingers 7.12502
lthumb 16.5389 20.3953
rfemur -25.71 -0.275377 10.6467
rtibia 45.6868
rfoot -23.0878 -11.1718
rtoes -15.1018
lfemur -34.9025 -13.3327 -20.3013
ltibia 49.6643
lfoot -16.3798 -11.2099
ltoes -5.24069
